<svg width="17" height="20" viewBox="0 0 17 20" fill="none" xmlns="http://www.w3.org/2000/svg">
<path fill-rule="evenodd" clip-rule="evenodd" d="M8.2002 0.0078125C8.75248 0.0078125 9.2002 0.455528 9.2002 1.00781V1.87639C10.6869 2.09078 12.0751 2.77933 13.1499 3.85325C14.4628 5.16504 15.2005 6.9444 15.2005 8.79992C15.2005 11.5528 15.4947 13.0916 15.7536 13.9067C15.8822 14.3116 15.9988 14.5277 16.0586 14.6225C16.0746 14.6478 16.0865 14.6644 16.0934 14.6736C16.374 14.943 16.4747 15.3542 16.3439 15.7262C16.2032 16.1267 15.825 16.3947 15.4005 16.3947H1.00001C0.61743 16.3947 0.268381 16.1764 0.100909 15.8324C-0.0630094 15.4957 -0.0248521 15.0964 0.198096 14.7972L0.206954 14.7836C0.222123 14.7597 0.253043 14.7083 0.294947 14.6253C0.378686 14.4596 0.507006 14.1664 0.640984 13.7127C0.909148 12.8048 1.20005 11.2537 1.20005 8.79992C1.20005 6.9444 1.93777 5.16504 3.25066 3.85325C4.32544 2.77936 5.71359 2.09082 7.2002 1.87641V1.00781C7.2002 0.455528 7.64791 0.0078125 8.2002 0.0078125ZM8.14668 3.80497C6.83965 3.81895 5.58931 4.34379 4.66429 5.26805C3.72666 6.2049 3.20005 7.47537 3.20005 8.79992C3.20005 11.4093 2.89093 13.1556 2.55908 14.2792C2.54749 14.3185 2.53587 14.3569 2.52424 14.3947H13.8111C13.4849 13.3112 13.2005 11.5767 13.2005 8.79992C13.2005 7.47537 12.6739 6.2049 11.7362 5.26805C10.8112 4.34377 9.56081 3.81892 8.25373 3.80497C8.236 3.80591 8.21815 3.80638 8.2002 3.80638C8.18224 3.80638 8.1644 3.80591 8.14668 3.80497Z" fill="#8E98A9"/>
<path d="M6.3182 16.8335C6.84812 16.6779 7.40382 16.9814 7.55938 17.5113C7.60014 17.6502 7.68477 17.7721 7.8006 17.8588C7.91643 17.9455 8.05723 17.9924 8.20193 17.9924C8.34663 17.9924 8.48743 17.9455 8.60326 17.8588C8.71909 17.7721 8.80372 17.6502 8.84448 17.5113C9.00004 16.9814 9.55574 16.6779 10.0857 16.8335C10.6156 16.989 10.9191 17.5447 10.7635 18.0747C10.601 18.6281 10.2636 19.1141 9.80187 19.4598C9.3401 19.8055 8.77877 19.9924 8.20193 19.9924C7.62509 19.9924 7.06376 19.8055 6.60199 19.4598C6.14022 19.1141 5.80284 18.6281 5.64036 18.0747C5.4848 17.5447 5.78828 16.989 6.3182 16.8335Z" fill="#8E98A9"/>
</svg>
