<svg width="18" height="18" viewBox="0 0 18 18" fill="none" xmlns="http://www.w3.org/2000/svg">
<path fill-rule="evenodd" clip-rule="evenodd" d="M4.537 0.597232C2.72063 1.36853 1.2852 2.82923 0.546588 4.65814C-0.192037 6.48709 -0.173311 8.53445 0.598831 10.3498C1.37097 12.1651 2.83319 13.5995 4.66365 14.3375C6.49409 15.0755 8.54281 15.0567 10.3592 14.2854C10.9326 14.0419 11.4681 13.7297 11.9556 13.3589L16.2927 17.6928C16.6833 18.0832 17.3165 18.083 17.7069 17.6923C18.0973 17.3017 18.097 16.6685 17.7064 16.2781L13.3704 11.9452C13.7687 11.4223 14.0992 10.8446 14.3496 10.2245C15.0882 8.39559 15.0695 6.34823 14.2973 4.53289C13.5252 2.71755 12.063 1.28314 10.2325 0.545132C8.40209 -0.19287 6.35336 -0.174064 4.537 0.597232ZM2.40162 5.4073C2.94167 4.07005 3.99134 3.00179 5.31981 2.43767C6.64828 1.87355 8.14651 1.85988 9.48488 2.39949C10.8232 2.93908 11.8921 3.98772 12.4564 5.3146C13.0208 6.64149 13.0346 8.13815 12.4946 9.47537C11.9545 10.8126 10.9048 11.8809 9.57636 12.445C8.24789 13.0091 6.74966 13.0228 5.4113 12.4832C4.07296 11.9436 3.00411 10.895 2.43973 9.56807C1.87535 8.24119 1.86158 6.74453 2.40162 5.4073Z" fill="#8E98A9"/>
</svg>
