<svg width="20" height="20" viewBox="0 0 20 20" fill="none" xmlns="http://www.w3.org/2000/svg">
<path fill-rule="evenodd" clip-rule="evenodd" d="M5.80195 0.0500488C6.0781 0.0500488 6.30195 0.273906 6.30195 0.550049V2.45005H13.702V0.550049C13.702 0.273906 13.9258 0.0500488 14.202 0.0500488C14.4781 0.0500488 14.702 0.273906 14.702 0.550049V2.45005H19.002C19.2781 2.45005 19.502 2.67391 19.502 2.95005V18.55C19.502 18.8262 19.2781 19.05 19.002 19.05H1.00195C0.725811 19.05 0.501953 18.8262 0.501953 18.55V2.95005C0.501953 2.67391 0.725811 2.45005 1.00195 2.45005H5.30195V0.550049C5.30195 0.273906 5.52581 0.0500488 5.80195 0.0500488ZM5.30195 3.45005H1.50195V7.25005H18.502V3.45005H14.702V4.75005C14.702 5.02619 14.4781 5.25005 14.202 5.25005C13.9258 5.25005 13.702 5.02619 13.702 4.75005V3.45005H6.30195V4.75005C6.30195 5.02619 6.0781 5.25005 5.80195 5.25005C5.52581 5.25005 5.30195 5.02619 5.30195 4.75005V3.45005ZM18.502 8.25005H1.50195V18.05H18.502V8.25005Z" fill="white"/>
</svg>
