<svg width="20" height="20" viewBox="0 0 20 20" fill="none" xmlns="http://www.w3.org/2000/svg">
<path d="M2.2 1.80005C2.01435 1.80005 1.8363 1.8738 1.70503 2.00507C1.57375 2.13635 1.5 2.3144 1.5 2.50005V4.90005C1.5 5.17619 1.27614 5.40005 1 5.40005C0.723858 5.40005 0.5 5.17619 0.5 4.90005V2.50005C0.5 2.04918 0.679107 1.61678 0.997919 1.29797C1.31673 0.979155 1.74913 0.800049 2.2 0.800049H4.6C4.87614 0.800049 5.1 1.02391 5.1 1.30005C5.1 1.57619 4.87614 1.80005 4.6 1.80005H2.2Z" fill="white"/>
<path d="M15.4004 0.800049C15.1242 0.800049 14.9004 1.02391 14.9004 1.30005C14.9004 1.57619 15.1242 1.80005 15.4004 1.80005H17.8004C17.986 1.80005 18.1641 1.8738 18.2954 2.00507C18.4266 2.13635 18.5004 2.3144 18.5004 2.50005V4.90005C18.5004 5.17619 18.7242 5.40005 19.0004 5.40005C19.2765 5.40005 19.5004 5.17619 19.5004 4.90005V2.50005C19.5004 2.04918 19.3213 1.61678 19.0025 1.29797C18.6837 0.979156 18.2513 0.800049 17.8004 0.800049H15.4004Z" fill="white"/>
<path d="M19.5004 15.7001C19.5004 15.4239 19.2765 15.2001 19.0004 15.2001C18.7242 15.2001 18.5004 15.4239 18.5004 15.7001V18.1001C18.5004 18.2857 18.4266 18.4638 18.2954 18.595C18.1641 18.7263 17.986 18.8001 17.8004 18.8001H15.4004C15.1242 18.8001 14.9004 19.0239 14.9004 19.3001C14.9004 19.5762 15.1242 19.8001 15.4004 19.8001H17.8004C18.2513 19.8001 18.6837 19.621 19.0025 19.3022C19.3213 18.9833 19.5004 18.5509 19.5004 18.1001V15.7001Z" fill="white"/>
<path d="M1.5 15.7001C1.5 15.4239 1.27614 15.2001 1 15.2001C0.723858 15.2001 0.5 15.4239 0.5 15.7001V18.1001C0.5 18.5509 0.679107 18.9833 0.997919 19.3022C1.31673 19.621 1.74913 19.8001 2.2 19.8001H4.6C4.87614 19.8001 5.1 19.5762 5.1 19.3001C5.1 19.0239 4.87614 18.8001 4.6 18.8001H2.2C2.01435 18.8001 1.8363 18.7263 1.70503 18.595C1.57375 18.4638 1.5 18.2857 1.5 18.1001V15.7001Z" fill="white"/>
<path fill-rule="evenodd" clip-rule="evenodd" d="M7.11299 5.11306C7.82563 4.40042 8.79218 4.00006 9.8 4.00006C10.8078 4.00006 11.7744 4.40042 12.487 5.11306C13.1996 5.82569 13.6 6.79224 13.6 7.80006C13.6 8.80788 13.1996 9.77443 12.487 10.4871C11.7744 11.1997 10.8078 11.6001 9.8 11.6001C8.79218 11.6001 7.82563 11.1997 7.11299 10.4871C6.40036 9.77443 6 8.80788 6 7.80006C6 6.79224 6.40036 5.82569 7.11299 5.11306ZM9.8 5.00006C9.05739 5.00006 8.3452 5.29506 7.8201 5.82016C7.295 6.34526 7 7.05746 7 7.80006C7 8.54267 7.295 9.25486 7.8201 9.77996C8.3452 10.3051 9.05739 10.6001 9.8 10.6001C10.5426 10.6001 11.2548 10.3051 11.7799 9.77996C12.305 9.25486 12.6 8.54267 12.6 7.80006C12.6 7.05746 12.305 6.34526 11.7799 5.82016C11.2548 5.29506 10.5426 5.00006 9.8 5.00006Z" fill="white"/>
<path d="M10.0003 11.8993C8.78004 11.8993 7.58976 12.2776 6.59341 12.9822C5.59706 13.6867 4.84364 14.6829 4.43693 15.8334C4.34489 16.0938 4.48134 16.3794 4.74169 16.4715C5.00205 16.5635 5.28771 16.427 5.37975 16.1667C5.71754 15.2111 6.34327 14.3838 7.17078 13.7987C7.99828 13.2135 8.98685 12.8993 10.0003 12.8993C11.0138 12.8993 12.0024 13.2135 12.8299 13.7987C13.6574 14.3838 14.2831 15.2111 14.6209 16.1667C14.713 16.427 14.9986 16.5635 15.259 16.4715C15.5193 16.3794 15.6558 16.0938 15.5638 15.8334C15.157 14.6829 14.4036 13.6867 13.4073 12.9822C12.4109 12.2776 11.2206 11.8993 10.0003 11.8993Z" fill="white"/>
</svg>
