<svg width="20" height="21" viewBox="0 0 20 21" fill="none" xmlns="http://www.w3.org/2000/svg">
<path fill-rule="evenodd" clip-rule="evenodd" d="M10.4584 0.339054C10.8488 0.729723 10.8485 1.36289 10.4579 1.75327L2.16658 10.0384L10.4579 18.3235C10.8485 18.7139 10.8488 19.3471 10.4584 19.7377C10.068 20.1284 9.43483 20.1286 9.04416 19.7383L0.469496 11.1699C0.469675 11.1701 0.469317 11.1698 0.469496 11.1699C0.320971 11.0216 0.202544 10.8449 0.122063 10.651C0.0414854 10.4568 0 10.2486 0 10.0384C0 9.82814 0.0414854 9.61997 0.122063 9.4258C0.202545 9.23185 0.320436 9.0557 0.468964 8.90737C0.468787 8.90755 0.469141 8.90719 0.468964 8.90737L9.04416 0.338529C9.43483 -0.05185 10.068 -0.0516151 10.4584 0.339054Z" fill="white"/>
<path fill-rule="evenodd" clip-rule="evenodd" d="M19.4584 0.339054C19.8488 0.729723 19.8485 1.36289 19.4579 1.75327L11.1666 10.0384L19.4579 18.3235C19.8485 18.7139 19.8488 19.3471 19.4584 19.7377C19.068 20.1284 18.4348 20.1286 18.0442 19.7383L9.4695 11.1699C9.46968 11.1701 9.46932 11.1698 9.4695 11.1699C9.32097 11.0216 9.20255 10.8449 9.12206 10.651C9.04148 10.4568 9 10.2486 9 10.0384C9 9.82815 9.04148 9.61997 9.12206 9.4258C9.20255 9.23185 9.32044 9.0557 9.46896 8.90738C9.46878 8.90755 9.46914 8.9072 9.46896 8.90738L18.0442 0.338529C18.4348 -0.05185 19.068 -0.0516151 19.4584 0.339054ZM10.8821 9.75413C10.8819 9.75395 10.8823 9.75431 10.8821 9.75413V9.75413Z" fill="white"/>
</svg>
