<svg width="20" height="20" viewBox="0 0 20 20" fill="none" xmlns="http://www.w3.org/2000/svg">
<path fill-rule="evenodd" clip-rule="evenodd" d="M14.7002 4.79995H19.0002C19.2763 4.79995 19.5002 4.57609 19.5002 4.29995V0.699951C19.5002 0.423809 19.2763 0.199951 19.0002 0.199951H14.2002C13.9241 0.199951 13.7002 0.423809 13.7002 0.699951V6.61976L10.3124 3.90949C10.1298 3.7634 9.87028 3.7634 9.68767 3.90949L0.687671 11.1095C0.47204 11.282 0.437079 11.5966 0.609584 11.8123C0.782089 12.0279 1.09673 12.0629 1.31237 11.8904L2.90039 10.6199V17.5C2.90039 17.9508 3.0795 18.3832 3.39831 18.702C3.71712 19.0208 4.14952 19.2 4.60039 19.2H8.20039C8.47653 19.2 8.70039 18.9761 8.70039 18.7V14.5C8.70039 14.4734 8.71093 14.448 8.72968 14.4292C8.74843 14.4105 8.77387 14.4 8.80039 14.4H11.2004C11.2269 14.4 11.2523 14.4105 11.2711 14.4292C11.2899 14.448 11.3004 14.4734 11.3004 14.5V18.7C11.3004 18.9761 11.5242 19.2 11.8004 19.2H15.4004C15.8513 19.2 16.2837 19.0208 16.6025 18.702C16.9213 18.3832 17.1004 17.9508 17.1004 17.5V10.6205L18.6877 11.8904C18.9033 12.0629 19.2179 12.0279 19.3905 11.8123C19.563 11.5966 19.528 11.282 19.3124 11.1095L16.9242 9.19893C16.9165 9.1924 16.9086 9.1861 16.9006 9.18004L14.7002 7.41976V4.79995ZM14.7002 1.19995V3.79995H18.5002V1.19995H14.7002ZM16.1004 9.82054L10 4.94024L3.90039 9.81994V17.5C3.90039 17.6856 3.97414 17.8637 4.10542 17.9949C4.23669 18.1262 4.41474 18.2 4.60039 18.2H7.70039V14.5C7.70039 14.2082 7.81628 13.9284 8.02257 13.7221C8.22886 13.5158 8.50865 13.4 8.80039 13.4H11.2004C11.4921 13.4 11.7719 13.5158 11.9782 13.7221C12.1845 13.9284 12.3004 14.2082 12.3004 14.5V18.2H15.4004C15.586 18.2 15.7641 18.1262 15.8954 17.9949C16.0266 17.8637 16.1004 17.6856 16.1004 17.5V9.82054Z" fill="white"/>
</svg>
