<svg width="19" height="19" viewBox="0 0 19 19" fill="none" xmlns="http://www.w3.org/2000/svg">
<path d="M11.8503 2.1798C11.7033 2.04489 11.5098 1.97199 11.3103 1.97632C11.1107 1.98065 10.9206 2.06186 10.7795 2.20302L2.24559 10.7383C2.10063 10.8834 2.01921 11.0801 2.01921 11.2853C2.01921 11.4904 2.10063 11.6871 2.24559 11.8323L3.44021 13.0269C3.44408 13.0282 3.45311 13.032 3.47117 13.032C3.50988 13.032 3.56148 13.0178 3.6105 12.9856C4.082 12.671 4.64793 12.5296 5.21197 12.5854C5.77601 12.6411 6.3033 12.8906 6.70408 13.2914C7.10487 13.6922 7.35437 14.2195 7.41013 14.7835C7.46588 15.3476 7.32445 15.9135 7.00989 16.385C6.98186 16.4258 6.96577 16.4736 6.96345 16.523C6.96345 16.5411 6.96603 16.5501 6.96732 16.5527L8.13356 17.7202C8.20685 17.7937 8.29415 17.8516 8.39028 17.8907C8.48641 17.9297 8.58941 17.949 8.69314 17.9474C8.79688 17.9459 8.89925 17.9235 8.99416 17.8815C9.08907 17.8396 9.17458 17.7791 9.24562 17.7035L17.7589 8.65863C17.8292 8.58393 17.884 8.496 17.92 8.39995C17.9561 8.3039 17.9726 8.20164 17.9688 8.09913C17.9649 7.99661 17.9408 7.89589 17.8977 7.8028C17.8545 7.70971 17.7934 7.62613 17.7176 7.5569L16.5746 6.50934L16.5708 6.50805C16.5524 6.50486 16.5335 6.5053 16.5153 6.50934C16.4425 6.52452 16.3762 6.56193 16.3256 6.61642C16.1101 6.86079 15.8479 7.05971 15.5545 7.20156C15.2611 7.34341 14.9424 7.42534 14.617 7.44255C14.2916 7.45976 13.966 7.41191 13.6593 7.3018C13.3526 7.19169 13.0709 7.02153 12.8308 6.80126C12.5906 6.581 12.3968 6.31506 12.2606 6.019C12.1244 5.72294 12.0487 5.4027 12.0378 5.07701C12.0268 4.75132 12.0809 4.42672 12.197 4.12219C12.313 3.81767 12.4885 3.53933 12.7134 3.30347C12.763 3.24811 12.7941 3.17866 12.8024 3.10479C12.8048 3.08623 12.8035 3.06737 12.7985 3.04932V3.04674L11.8516 2.1798H11.8503ZM10.0506 1.47283C10.3798 1.14372 10.8232 0.954368 11.2886 0.944273C11.7539 0.934178 12.2052 1.10412 12.5483 1.41864L13.4939 2.28559C13.7764 2.5436 13.8551 2.8958 13.8293 3.19768C13.8022 3.4944 13.6719 3.78338 13.4707 4.0027C13.3447 4.14009 13.247 4.30096 13.1832 4.4761C13.1195 4.65124 13.0908 4.83723 13.0989 5.02345C13.107 5.20968 13.1516 5.39248 13.2304 5.56144C13.3091 5.73039 13.4204 5.88218 13.5577 6.00814C13.6951 6.1341 13.856 6.23177 14.0312 6.29556C14.2063 6.35936 14.3923 6.38803 14.5785 6.37994C14.7647 6.37186 14.9475 6.32717 15.1165 6.24844C15.2854 6.1697 15.4372 6.05846 15.5632 5.92106C15.7632 5.70046 16.0405 5.54564 16.3334 5.49275C16.4986 5.45977 16.6693 5.46568 16.8318 5.51002C16.9944 5.55435 17.1444 5.63589 17.27 5.74819L18.4143 6.79574C18.5907 6.95741 18.7331 7.15252 18.8335 7.36972C18.9338 7.58692 18.99 7.82189 18.9988 8.06098C19.0075 8.30007 18.9687 8.53853 18.8845 8.76249C18.8004 8.98645 18.6725 9.19146 18.5085 9.3656L9.99516 18.4117C9.8294 18.5879 9.62995 18.7289 9.40864 18.8265C9.18732 18.9241 8.94866 18.9763 8.70681 18.9799C8.46496 18.9835 8.22485 18.9385 8.00073 18.8475C7.7766 18.7566 7.57303 18.6215 7.40208 18.4504L6.23584 17.2829C5.78818 16.8352 5.89654 16.1915 6.1494 15.8122C6.33081 15.5393 6.41216 15.2119 6.37964 14.8858C6.34712 14.5597 6.20274 14.2549 5.971 14.0232C5.73927 13.7915 5.43447 13.6471 5.10836 13.6146C4.78226 13.582 4.45495 13.6634 4.18201 13.8448C3.80144 14.0977 3.15768 14.206 2.71002 13.7571L1.5154 12.5624C1.34766 12.3947 1.21461 12.1956 1.12383 11.9765C1.03305 11.7573 0.986328 11.5225 0.986328 11.2853C0.986328 11.0481 1.03305 10.8132 1.12383 10.594C1.21461 10.3749 1.34766 10.1758 1.5154 10.0081L10.0506 1.47283Z" fill="white"/>
</svg>
