<svg width="16" height="16" viewBox="0 0 16 16" fill="none" xmlns="http://www.w3.org/2000/svg">
<path fill-rule="evenodd" clip-rule="evenodd" d="M8 0.229492C7.86739 0.229492 7.74021 0.282171 7.64645 0.375939C7.55268 0.469707 7.5 0.596884 7.5 0.729492V7.99921C7.5 8.27535 7.72386 8.49921 8 8.49921H15.2697C15.5459 8.49921 15.7697 8.27535 15.7697 7.99921C15.7697 6.97888 15.5688 5.96853 15.1783 5.02587C14.7878 4.0832 14.2155 3.22668 13.494 2.50519C12.7725 1.78371 11.916 1.21139 10.9733 0.820927C10.0307 0.430462 9.02033 0.229492 8 0.229492ZM8.5 7.49921V1.24798C9.21783 1.30114 9.92369 1.46854 10.5907 1.74481C11.412 2.08502 12.1583 2.58367 12.7869 3.2123C13.4155 3.84092 13.9142 4.58721 14.2544 5.40855C14.5307 6.07552 14.6981 6.78138 14.7512 7.49921H8.5ZM5.29257 1.79134C5.54567 1.68089 5.66131 1.38618 5.55086 1.13309C5.44041 0.879995 5.14571 0.764357 4.89261 0.874802C3.7294 1.38241 2.70823 2.16724 1.9184 3.16068C1.12857 4.15411 0.594121 5.3259 0.361778 6.57361C0.129435 7.82131 0.206273 9.10693 0.585575 10.3181C0.964876 11.5292 1.63509 12.629 2.53763 13.5213C3.44016 14.4136 4.54754 15.0712 5.76294 15.4367C6.97833 15.8021 8.26475 15.8642 9.50972 15.6177C10.7547 15.3711 11.9203 14.8233 12.9047 14.0222C13.889 13.2211 14.6621 12.191 15.1564 11.0221C15.264 10.7677 15.145 10.4743 14.8906 10.3668C14.6363 10.2593 14.3429 10.3783 14.2354 10.6326C13.8047 11.6511 13.1311 12.5486 12.2734 13.2466C11.4158 13.9446 10.4002 14.4219 9.31544 14.6367C8.2307 14.8516 7.10985 14.7974 6.05088 14.479C4.99191 14.1606 4.02706 13.5876 3.24068 12.8102C2.45431 12.0327 1.87035 11.0745 1.53987 10.0192C1.20939 8.96395 1.14244 7.84379 1.34488 6.75668C1.54732 5.66956 2.01298 4.64858 2.70116 3.78301C3.38933 2.91743 4.27907 2.23361 5.29257 1.79134Z" fill="white"/>
</svg>
