<svg width="24" height="24" viewBox="0 0 24 24" fill="none" xmlns="http://www.w3.org/2000/svg">
<path fill-rule="evenodd" clip-rule="evenodd" d="M11.9617 6.23027C12.4493 5.74268 13.1106 5.46875 13.8002 5.46875C14.4898 5.46875 15.1511 5.74268 15.6387 6.23027C16.1263 6.71787 16.4002 7.37919 16.4002 8.06875C16.4002 8.75831 16.1263 9.41963 15.6387 9.90723C15.1511 10.3948 14.4898 10.6688 13.8002 10.6688C13.1106 10.6688 12.4493 10.3948 11.9617 9.90723C11.4741 9.41963 11.2002 8.75831 11.2002 8.06875C11.2002 7.37919 11.4741 6.71787 11.9617 6.23027ZM13.8002 6.46875C13.3758 6.46875 12.9689 6.63732 12.6688 6.93738C12.3688 7.23744 12.2002 7.6444 12.2002 8.06875C12.2002 8.4931 12.3688 8.90006 12.6688 9.20012C12.9689 9.50018 13.3758 9.66875 13.8002 9.66875C14.2245 9.66875 14.6315 9.50018 14.9316 9.20012C15.2316 8.90006 15.4002 8.4931 15.4002 8.06875C15.4002 7.6444 15.2316 7.23744 14.9316 6.93738C14.6315 6.63732 14.2245 6.46875 13.8002 6.46875Z" fill="white"/>
<path d="M9.8916 12.5967C10.2291 12.2105 10.6455 11.9011 11.1126 11.6893C11.5797 11.4775 12.0867 11.3681 12.5996 11.3687H14.9996C15.5125 11.3681 16.0195 11.4775 16.4866 11.6893C16.9537 11.9011 17.3701 12.2105 17.7076 12.5967" stroke="white" stroke-linecap="round" stroke-linejoin="round"/>
<path fill-rule="evenodd" clip-rule="evenodd" d="M7.70153 11.5989C7.82834 11.5045 7.99229 11.4757 8.14367 11.5211L14 13.278L19.8563 11.5211C20.0077 11.4757 20.1717 11.5045 20.2985 11.5989C20.4253 11.6932 20.5 11.842 20.5 12V15.8197C20.685 15.9033 20.8553 16.0203 21.0017 16.1666C21.3205 16.4854 21.4996 16.9178 21.4996 17.3687C21.4996 17.8196 21.3205 18.252 21.0017 18.5708C20.8553 18.7171 20.685 18.8341 20.5 18.9177V19.2C20.5 19.4208 20.3552 19.6155 20.1437 19.6789L14.1428 21.4792C14.0505 21.5067 13.9509 21.5073 13.8563 21.4789M13.855 21.4785L7.85633 19.6789C7.64483 19.6155 7.5 19.4208 7.5 19.2V19.0421C7.16043 18.9813 6.84481 18.8181 6.59753 18.5708C6.27872 18.252 6.09961 17.8196 6.09961 17.3687C6.09961 16.9178 6.27872 16.4854 6.59753 16.1666C6.84481 15.9193 7.16043 15.7561 7.5 15.6953V12C7.5 11.842 7.57473 11.6932 7.70153 11.5989M13.5 20.328V14.172L8.5 12.672V15.6733C8.75492 15.6966 8.99493 15.8084 9.17743 15.9909C9.38372 16.1972 9.49961 16.477 9.49961 16.7687V17.9687C9.49961 18.2604 9.38372 18.5402 9.17743 18.7465C9.09541 18.8285 9.00177 18.8963 8.90038 18.9481L13.5 20.328ZM14.5 20.328L18.8681 19.0176C18.7013 18.9648 18.5478 18.8725 18.4218 18.7465C18.2155 18.5402 18.0996 18.2604 18.0996 17.9687V16.7687C18.0996 16.477 18.2155 16.1972 18.4218 15.9909C18.6281 15.7846 18.9079 15.6687 19.1996 15.6687H19.5V12.672L14.5 14.172V20.328ZM8 16.7C7.93861 16.7 7.87981 16.6889 7.82547 16.6687H7.79961C7.61396 16.6687 7.43591 16.7425 7.30463 16.8737C7.17336 17.005 7.09961 17.183 7.09961 17.3687C7.09961 17.5544 7.17336 17.7324 7.30463 17.8637C7.43591 17.995 7.61396 18.0687 7.79961 18.0687H8.39961C8.42613 18.0687 8.45157 18.0582 8.47032 18.0394C8.48907 18.0207 8.49961 17.9952 8.49961 17.9687V16.7687C8.49961 16.7422 8.48907 16.7167 8.47032 16.698C8.45157 16.6792 8.42613 16.6687 8.39961 16.6687H8.17453C8.12019 16.6889 8.06139 16.7 8 16.7ZM20 16.7C19.9392 16.7 19.8808 16.6891 19.8269 16.6692C19.8178 16.6689 19.8087 16.6687 19.7996 16.6687H19.1996C19.1731 16.6687 19.1477 16.6792 19.1289 16.698C19.1101 16.7167 19.0996 16.7422 19.0996 16.7687V17.9687C19.0996 17.9952 19.1101 18.0207 19.1289 18.0394C19.1477 18.0582 19.1731 18.0687 19.1996 18.0687H19.7996C19.9853 18.0687 20.1633 17.995 20.2946 17.8637C20.4259 17.7324 20.4996 17.5544 20.4996 17.3687C20.4996 17.1831 20.4259 17.005 20.2946 16.8737C20.2134 16.7925 20.1142 16.7333 20.0065 16.7L20 16.7Z" fill="white"/>
<path d="M7.09961 4.76874C7.09961 4.4926 6.87575 4.26874 6.59961 4.26874C6.32347 4.26874 6.09961 4.4926 6.09961 4.76874V6.56874C6.09961 6.84488 6.32347 7.06874 6.59961 7.06874H7.79961C8.07575 7.06874 8.29961 6.84488 8.29961 6.56874C8.29961 6.2926 8.07575 6.06874 7.79961 6.06874H7.09961V4.76874Z" fill="white"/>
<path fill-rule="evenodd" clip-rule="evenodd" d="M6.6 2.46875C6.06158 2.46875 5.52843 2.5748 5.031 2.78084C4.53356 2.98689 4.08158 3.28889 3.70086 3.66961C3.32014 4.05033 3.01814 4.50231 2.81209 4.99975C2.60605 5.49718 2.5 6.03033 2.5 6.56875C2.5 7.10717 2.60605 7.64032 2.81209 8.13775C3.01814 8.63519 3.32014 9.08717 3.70086 9.46789C4.08158 9.84861 4.53356 10.1506 5.031 10.3567C5.52843 10.5627 6.06158 10.6688 6.6 10.6688C7.13842 10.6688 7.67157 10.5627 8.169 10.3567C8.66644 10.1506 9.11842 9.84861 9.49914 9.46789C9.87986 9.08717 10.1819 8.63519 10.3879 8.13775C10.594 7.64032 10.7 7.10717 10.7 6.56875C10.7 6.03033 10.594 5.49718 10.3879 4.99975C10.1819 4.50231 9.87986 4.05033 9.49914 3.66961C9.11842 3.28889 8.66644 2.98689 8.169 2.78084C7.67157 2.5748 7.13842 2.46875 6.6 2.46875ZM5.41368 3.70472C5.78979 3.54893 6.1929 3.46875 6.6 3.46875C7.0071 3.46875 7.41021 3.54893 7.78632 3.70472C8.16243 3.86051 8.50417 4.08886 8.79203 4.37672C9.07989 4.66458 9.30824 5.00632 9.46403 5.38243C9.61982 5.75854 9.7 6.16165 9.7 6.56875C9.7 6.97585 9.61982 7.37896 9.46403 7.75507C9.30824 8.13118 9.07989 8.47292 8.79203 8.76078C8.50417 9.04864 8.16243 9.27699 7.78632 9.43278C7.41021 9.58857 7.0071 9.66875 6.6 9.66875C6.1929 9.66875 5.78979 9.58857 5.41368 9.43278C5.03757 9.27699 4.69583 9.04864 4.40797 8.76078C4.12011 8.47292 3.89176 8.13118 3.73597 7.75507C3.58018 7.37896 3.5 6.97585 3.5 6.56875C3.5 6.16165 3.58018 5.75854 3.73597 5.38243C3.89176 5.00632 4.12011 4.66458 4.40797 4.37672C4.69583 4.08886 5.03757 3.86051 5.41368 3.70472Z" fill="white"/>
</svg>
