<svg width="20" height="20" viewBox="0 0 20 20" fill="none" xmlns="http://www.w3.org/2000/svg">
<path fill-rule="evenodd" clip-rule="evenodd" d="M14.2593 0.526287C15.1029 0.38142 15.9706 0.501568 16.7431 0.870195C16.8896 0.940101 16.993 1.07676 17.0205 1.23673C17.048 1.3967 16.9962 1.56006 16.8814 1.67488L15.7422 2.81488C15.6085 2.94856 15.5333 3.12999 15.5333 3.31905C15.5333 3.5081 15.6084 3.68941 15.7421 3.82309C15.8758 3.95677 16.0571 4.03188 16.2461 4.03188C16.3398 4.03188 16.4325 4.01344 16.5189 3.97761C16.6054 3.94179 16.684 3.88929 16.7502 3.82309L17.8897 2.68039C18.0044 2.56534 18.1679 2.51321 18.328 2.5406C18.4882 2.56799 18.625 2.67148 18.695 2.8181C19.0636 3.59056 19.1838 4.45829 19.0389 5.30185C18.894 6.14541 18.4913 6.92334 17.8861 7.52856C17.2808 8.13378 16.5029 8.53654 15.6594 8.68141C14.9343 8.80593 14.1913 8.73464 13.5063 8.47805L8.11143 13.8752C8.36777 14.56 8.43892 15.3027 8.31439 16.0275C8.16952 16.8708 7.76696 17.6484 7.16207 18.2535C6.55719 18.8586 5.77969 19.2614 4.93651 19.4065C4.09333 19.5517 3.22589 19.432 2.45349 19.064C2.30691 18.9942 2.20337 18.8575 2.1758 18.6975C2.14824 18.5375 2.2001 18.3741 2.31487 18.2592L3.44665 17.1266C3.56867 16.9921 3.6348 16.816 3.63134 16.6342C3.62782 16.4497 3.5529 16.2738 3.42234 16.1434C3.29178 16.013 3.11575 15.9383 2.93126 15.9351C2.74936 15.9319 2.57321 15.9983 2.43882 16.1207L1.30598 17.2527C1.19117 17.3675 1.0278 17.4193 0.867836 17.3918C0.707868 17.3643 0.571204 17.2609 0.501298 17.1144C0.132672 16.3419 0.0125235 15.4742 0.157391 14.6306C0.302258 13.7871 0.705018 13.0092 1.31024 12.4039C1.91546 11.7987 2.69338 11.396 3.53694 11.2511C4.26204 11.1266 5.00499 11.1978 5.68995 11.4544L11.0832 6.05899C10.8266 5.37399 10.7553 4.63099 10.8798 3.90584C11.0247 3.06228 11.4274 2.28435 12.0326 1.67913C12.6379 1.07391 13.4158 0.671154 14.2593 0.526287ZM7.01172 13.664C7.03694 13.5266 7.16612 13.4064 7.16612 13.4064L13.0373 7.53276C13.1871 7.38292 13.4151 7.34374 13.6063 7.43499C14.1922 7.71458 14.8503 7.80571 15.4901 7.69583C16.1299 7.58596 16.7199 7.28048 17.179 6.82145C17.638 6.36242 17.9435 5.7724 18.0533 5.1326C18.1208 4.73983 18.1125 4.34017 18.0313 3.95454L17.4578 4.5297C17.2987 4.68875 17.1094 4.81542 16.9016 4.90149C16.6938 4.98757 16.4711 5.03188 16.2461 5.03188C15.7919 5.03188 15.3562 4.85142 15.035 4.5302C14.7138 4.20898 14.5333 3.77332 14.5333 3.31905C14.5333 2.86483 14.7137 2.42922 15.0349 2.10802L15.6083 1.5342C15.2222 1.45273 14.8219 1.44431 14.4286 1.51186C13.7888 1.62173 13.1988 1.92721 12.7397 2.38624C12.2807 2.84527 11.9752 3.43529 11.8654 4.0751C11.7555 4.7149 11.8466 5.37303 12.1262 5.9589C12.2174 6.15005 12.1783 6.37793 12.0286 6.52773L6.15898 12.3997C6.00919 12.5496 5.78122 12.5887 5.59001 12.4975C5.00413 12.2179 4.346 12.1268 3.7062 12.2367C3.0664 12.3465 2.47638 12.652 2.01734 13.111C1.55831 13.5701 1.25284 14.1601 1.14296 14.7999C1.07542 15.1932 1.08383 15.5935 1.1653 15.9796L1.73912 15.4062C1.74333 15.402 1.74761 15.3978 1.75197 15.3938C2.07657 15.0918 2.50564 14.9274 2.94893 14.9352C3.39223 14.9431 3.81522 15.1225 4.12895 15.4358C4.44268 15.7491 4.6227 16.1718 4.63116 16.6151C4.63961 17.0584 4.47584 17.4877 4.17429 17.8127L4.16896 17.8184L4.16143 17.8261L3.58846 18.3994C3.97422 18.4805 4.37401 18.4887 4.76686 18.421C5.40637 18.3109 5.99607 18.0054 6.45485 17.5465C6.91363 17.0876 7.21895 16.4978 7.32883 15.8582C7.4387 15.2187 7.34774 14.5608 7.06843 13.9751C7.06843 13.9751 6.9865 13.8014 7.01172 13.664Z" fill="white"/>
<path d="M3.58846 1.53464L4.1613 2.10788C4.48244 2.42909 4.66298 2.86482 4.66298 3.31904C4.66298 3.77331 4.48252 4.20897 4.1613 4.53019C3.84009 4.85141 3.40442 5.03186 2.95015 5.03186C2.49594 5.03186 2.06033 4.85145 1.73912 4.53031L1.1653 3.95689C1.08383 4.34302 1.07542 4.74327 1.14296 5.13659C1.25284 5.77639 1.55831 6.36641 2.01734 6.82544C2.47638 7.28447 3.0664 7.58995 3.7062 7.69982C4.346 7.8097 5.00413 7.71857 5.59001 7.43898C5.78119 7.34775 6.00911 7.38689 6.1589 7.53668L6.5829 7.96068C6.77817 8.15594 6.77817 8.47253 6.5829 8.66779C6.38764 8.86305 6.07106 8.86305 5.8758 8.66779L5.69002 8.48201C5.00505 8.73863 4.26207 8.80992 3.53694 8.68539C2.69338 8.54053 1.91546 8.13777 1.31024 7.53255C0.705018 6.92733 0.302258 6.1494 0.157391 5.30584C0.0125235 4.46228 0.132672 3.59455 0.501298 2.82209C0.571204 2.6756 0.707868 2.57216 0.867836 2.54466C1.0278 2.51716 1.19117 2.56902 1.30598 2.68376L2.44598 3.82296C2.57966 3.95664 2.7611 4.03186 2.95015 4.03186C3.1392 4.03186 3.32052 3.95676 3.4542 3.82308C3.58788 3.6894 3.66298 3.50809 3.66298 3.31904C3.66298 3.12998 3.58788 2.94867 3.4542 2.81499L2.31487 1.67486C2.2001 1.56001 2.14824 1.39658 2.17581 1.23657C2.20337 1.07655 2.30691 0.939886 2.45349 0.870048C3.22589 0.50205 4.09333 0.382396 4.93651 0.527543C5.77969 0.672689 6.55719 1.07551 7.16207 1.68059C7.76696 2.28568 8.16952 3.06331 8.31439 3.90654C8.43894 4.6315 8.36775 5.37433 8.11131 6.05922L8.23529 6.18347C8.43034 6.37895 8.42999 6.69553 8.23451 6.89058C8.03904 7.08562 7.72245 7.08528 7.52741 6.8898L7.16581 6.5274C7.01636 6.37763 6.97737 6.15 7.06843 5.95903C7.34774 5.37329 7.43871 4.71541 7.32883 4.07586C7.21895 3.43631 6.91363 2.84651 6.45485 2.38758C5.99607 1.92865 5.40637 1.62313 4.76686 1.51305C4.37401 1.44542 3.97422 1.45358 3.58846 1.53464Z" fill="white"/>
<path d="M13.2403 11.1868C13.0449 10.9917 12.7283 10.992 12.5332 11.1874C12.3381 11.3828 12.3384 11.6994 12.5338 11.8945L13.0378 12.3977C13.1876 12.5473 13.4154 12.5863 13.6064 12.4951C14.1923 12.2155 14.8504 12.1244 15.4902 12.2343C16.13 12.3441 16.72 12.6496 17.1791 13.1086C17.6381 13.5677 17.9436 14.1577 18.0535 14.7975C18.121 15.1908 18.1126 15.5911 18.0311 15.9772L17.4574 15.4039C17.1362 15.0827 16.7005 14.9022 16.2463 14.9022C15.792 14.9022 15.3563 15.0827 15.0351 15.4039C14.7139 15.7251 14.5334 16.1608 14.5334 16.6151C14.5334 17.0693 14.7139 17.505 15.0351 17.8262L15.6084 18.3999C15.2223 18.4814 14.822 18.4898 14.4287 18.4222C13.7889 18.3124 13.1989 18.0069 12.7399 17.5479C12.2808 17.0888 11.9754 16.4988 11.8655 15.859C11.7556 15.2192 11.8467 14.5611 12.1263 13.9752C12.2175 13.7841 12.1785 13.5564 12.0289 13.4066L11.5257 12.9026C11.3306 12.7072 11.014 12.7069 10.8186 12.902C10.6232 13.0971 10.6229 13.4137 10.818 13.6091L11.0834 13.8749C10.8267 14.56 10.7554 15.303 10.8799 16.0283C11.0248 16.8718 11.4275 17.6497 12.0328 18.255C12.638 18.8602 13.4159 19.2629 14.2595 19.4078C15.103 19.5527 15.9708 19.4325 16.7432 19.0639C16.8897 18.994 16.9931 18.8573 17.0206 18.6974C17.0481 18.5374 16.9963 18.374 16.8816 18.2592L15.7422 17.1191C15.6085 16.9854 15.5334 16.8041 15.5334 16.6151C15.5334 16.426 15.6085 16.2447 15.7422 16.111C15.8759 15.9773 16.0572 15.9022 16.2463 15.9022C16.4353 15.9022 16.6168 15.9774 16.7504 16.1111L17.8904 17.2503C18.0053 17.3651 18.1686 17.4169 18.3286 17.3894C18.4886 17.3619 18.6252 17.2585 18.6951 17.112C19.0638 16.3395 19.1839 15.4718 19.039 14.6282C18.8942 13.7847 18.4914 13.0068 17.8862 12.4015C17.281 11.7963 16.503 11.3936 15.6595 11.2487C14.9343 11.1241 14.1912 11.1955 13.5061 11.4522L13.2403 11.1868Z" fill="white"/>
</svg>
