<svg width="16" height="20" viewBox="0 0 16 20" fill="none" xmlns="http://www.w3.org/2000/svg">
<path fill-rule="evenodd" clip-rule="evenodd" d="M7.99961 7.96631C7.23048 7.96631 6.49286 8.27184 5.949 8.8157C5.40514 9.35955 5.09961 10.0972 5.09961 10.8663L5.09964 10.879L5.09947 10.89C5.0991 10.9085 5.09833 10.9369 5.09675 10.9738C5.09358 11.0479 5.08715 11.1555 5.07416 11.2853C5.04795 11.5474 4.99614 11.8885 4.89589 12.2227C4.79407 12.5621 4.65274 12.8587 4.46878 13.0631C4.29771 13.2532 4.09004 13.3663 3.7998 13.3663C3.52366 13.3663 3.2998 13.5902 3.2998 13.8663C3.2998 14.1425 3.52366 14.3663 3.7998 14.3663C4.40957 14.3663 4.8769 14.1045 5.21208 13.7321C5.47683 13.4379 5.65647 13.0795 5.78046 12.7332C5.83377 12.7966 5.88998 12.8579 5.949 12.9169C6.49286 13.4608 7.23048 13.7663 7.99961 13.7663C8.76874 13.7663 9.50636 13.4608 10.0502 12.9169C10.1095 12.8576 10.1659 12.7961 10.2194 12.7324C10.3434 13.0789 10.5232 13.4377 10.7881 13.7321C11.1233 14.1045 11.5906 14.3663 12.2004 14.3663C12.4765 14.3663 12.7004 14.1425 12.7004 13.8663C12.7004 13.5902 12.4765 13.3663 12.2004 13.3663C11.9102 13.3663 11.7025 13.2532 11.5314 13.0631C11.3475 12.8587 11.2061 12.5621 11.1043 12.2227C11.0041 11.8885 10.9522 11.5474 10.926 11.2853C10.9131 11.1555 10.9066 11.0479 10.9034 10.9738C10.9019 10.9369 10.9011 10.9085 10.9007 10.89L10.9004 10.8701L10.9004 10.8661C10.9004 10.8557 10.9001 10.8455 10.8994 10.8353C10.8914 10.0774 10.5868 9.35224 10.0502 8.8157C9.50636 8.27184 8.76874 7.96631 7.99961 7.96631ZM6.65611 9.52281C6.30274 9.87617 6.10294 10.3544 6.09965 10.8538L6.09981 10.8663L6.0998 10.8681L6.09979 10.8709L6.09973 10.8798L6.09968 10.8828C6.104 11.3808 6.30368 11.8574 6.65611 12.2098C7.01243 12.5661 7.4957 12.7663 7.99961 12.7663C8.50352 12.7663 8.98679 12.5661 9.34311 12.2098C9.69943 11.8535 9.89961 11.3702 9.89961 10.8663C9.89961 10.3624 9.69943 9.87912 9.34311 9.52281C8.98679 9.16649 8.50352 8.96631 7.99961 8.96631C7.4957 8.96631 7.01243 9.16649 6.65611 9.52281Z" fill="white"/>
<path fill-rule="evenodd" clip-rule="evenodd" d="M8.00019 0.466309C7.3902 0.466309 6.80518 0.708629 6.37385 1.13996C5.94252 1.5713 5.7002 2.15631 5.7002 2.76631V2.86633H2.60039C2.14952 2.86633 1.71712 3.04544 1.39831 3.36425C1.0795 3.68306 0.900391 4.11547 0.900391 4.56633V17.7663C0.900391 18.2172 1.0795 18.6496 1.39831 18.9684C1.71712 19.2872 2.14952 19.4663 2.60039 19.4663H4.50603C4.51231 19.4665 4.51861 19.4665 4.52492 19.4663H11.4739C11.4803 19.4665 11.4866 19.4665 11.4929 19.4663H13.4004C13.8513 19.4663 14.2837 19.2872 14.6025 18.9684C14.9213 18.6496 15.1004 18.2172 15.1004 17.7663V4.56633C15.1004 4.11546 14.9213 3.68306 14.6025 3.36425C14.2837 3.04544 13.8513 2.86633 13.4004 2.86633H10.3002V2.76631C10.3002 2.15631 10.0579 1.5713 9.62654 1.13996C9.19521 0.708629 8.61019 0.466309 8.00019 0.466309ZM11.0686 18.4663H4.93045C4.85795 17.8757 4.95574 17.2737 5.21641 16.7329C5.47366 16.1992 5.87629 15.7524 6.37423 15.4417L7.59226 17.1559C7.68604 17.2879 7.83794 17.3663 7.99985 17.3663C8.16177 17.3663 8.31366 17.2879 8.40744 17.1559L9.6255 15.4416C10.1235 15.7523 10.5261 16.199 10.7832 16.7328C11.0438 17.2737 11.1414 17.8757 11.0686 18.4663ZM11.6841 16.2987C12.0104 16.9759 12.1432 17.7257 12.0744 18.4663H13.4004C13.586 18.4663 13.7641 18.3926 13.8954 18.2613C14.0266 18.13 14.1004 17.952 14.1004 17.7663V4.56633C14.1004 4.38068 14.0266 4.20263 13.8954 4.07136C13.7641 3.94008 13.586 3.86633 13.4004 3.86633H10.3002V5.16631C10.3002 5.45805 10.1843 5.73784 9.97801 5.94413C9.77172 6.15042 9.49193 6.26631 9.20019 6.26631H6.80019C6.50846 6.26631 6.22867 6.15042 6.02238 5.94413C5.81609 5.73784 5.7002 5.45805 5.7002 5.16631V3.86633H2.60039C2.41474 3.86633 2.23669 3.94008 2.10542 4.07136C1.97414 4.20263 1.90039 4.38068 1.90039 4.56633V17.7663C1.90039 17.952 1.97414 18.13 2.10542 18.2613C2.23669 18.3926 2.41474 18.4663 2.60039 18.4663H3.92478C3.85616 17.7256 3.9892 16.9759 4.31559 16.2987C4.73385 15.4309 5.44314 14.7372 6.32004 14.3384C6.53811 14.2392 6.79588 14.3086 6.93464 14.5039L7.99985 16.0031L9.06506 14.5039C9.2038 14.3086 9.46154 14.2392 9.67959 14.3383C10.5566 14.7371 11.266 15.4308 11.6841 16.2987ZM6.7002 3.38043V5.16631C6.7002 5.19283 6.71073 5.21827 6.72949 5.23702C6.74824 5.25577 6.77367 5.26631 6.80019 5.26631H9.20019C9.22672 5.26631 9.25215 5.25577 9.2709 5.23702C9.28966 5.21827 9.30019 5.19283 9.30019 5.16631V2.76631C9.30019 2.42153 9.16323 2.09087 8.91943 1.84707C8.67564 1.60327 8.34498 1.46631 8.00019 1.46631C7.65541 1.46631 7.32475 1.60327 7.08096 1.84707C6.83716 2.09087 6.7002 2.42153 6.7002 2.76631V3.35223L6.70039 3.36633L6.7002 3.38043Z" fill="white"/>
</svg>
