<svg width="16" height="17" viewBox="0 0 16 17" fill="none" xmlns="http://www.w3.org/2000/svg">
<g clip-path="url(#clip0_1_804)">
<path d="M8 16.5C12.4183 16.5 16 12.9183 16 8.5C16 4.08172 12.4183 0.5 8 0.5C3.58172 0.5 0 4.08172 0 8.5C0 12.9183 3.58172 16.5 8 16.5Z" fill="#8E98A9"/>
<path d="M12.72 6.75327L6.8933 4.3866H6.88664H6.87997C6.8133 4.35327 6.74664 4.3266 6.66664 4.3266C6.41997 4.3266 6.21997 4.5266 6.21997 4.77327V13.4399C6.21997 13.6866 6.41997 13.8866 6.66664 13.8866C6.9133 13.8866 7.1133 13.6866 7.1133 13.4399V9.47993L12.7266 7.19993C12.8133 7.1666 12.8733 7.07327 12.8733 6.97993C12.8666 6.87993 12.8133 6.79327 12.72 6.75327Z" fill="white"/>
</g>
<defs>
<clipPath id="clip0_1_804">
<rect width="16" height="16" fill="white" transform="translate(0 0.5)"/>
</clipPath>
</defs>
</svg>
