<svg width="68" height="24" viewBox="0 0 68 24" fill="none" xmlns="http://www.w3.org/2000/svg">
<path d="M62.0268 0H57.1984C54.276 0 51.8984 2.37761 51.8984 5.3V24L55.8745 22.7209V17.8552L63.6492 15.3567C65.8492 14.6493 67.3283 12.6209 67.3283 10.3104V5.3C67.3268 2.37761 64.9492 0 62.0268 0ZM63.3507 10.3119C63.3507 10.8896 62.982 11.3955 62.4313 11.5716L55.8731 13.6791V5.3C55.8731 4.57015 56.4671 3.97612 57.1969 3.97612H62.0253C62.7551 3.97612 63.3492 4.57015 63.3492 5.3V10.3119H63.3507Z" fill="white"/>
<path d="M47.2285 14.3164H39.0926C38.8732 14.3164 38.6956 14.1373 38.6956 13.9194V12.8463L46.4702 10.3478C48.6702 9.6403 50.1493 7.61194 50.1493 5.30149C50.1479 2.37761 47.7702 0 44.8464 0H40.018C37.0956 0 34.718 2.37761 34.718 5.3V13.9179C34.718 16.3298 36.6807 18.2925 39.0926 18.2925H45.1867L47.2285 14.3164ZM38.6941 5.3C38.6941 4.57015 39.2882 3.97612 40.018 3.97612H44.8464C45.5762 3.97612 46.1702 4.57015 46.1702 5.3C46.1702 5.87761 45.8016 6.38358 45.2508 6.5597L38.6926 8.66716V5.3H38.6941Z" fill="white"/>
<path d="M30.0478 14.3164H21.912C21.6925 14.3164 21.5149 14.1373 21.5149 13.9194V12.8463L29.2896 10.3478C31.4896 9.6403 32.9687 7.61194 32.9687 5.30149C32.9672 2.37761 30.5896 0 27.6672 0H22.8388C19.9164 0 17.5388 2.37761 17.5388 5.3V13.9179C17.5388 16.3298 19.5015 18.2925 21.9134 18.2925H28.0075L30.0478 14.3164ZM21.5149 5.3C21.5149 4.57015 22.109 3.97612 22.8388 3.97612H27.6672C28.397 3.97612 28.9911 4.57015 28.9911 5.3C28.9911 5.87761 28.6224 6.38358 28.0717 6.5597L21.5134 8.66716V5.3H21.5149Z" fill="white"/>
<path d="M10.1299 0H5.3C2.37761 0 0 2.37761 0 5.3V24L3.97612 22.7209V17.8552L11.7507 15.3567C13.9507 14.6493 15.4299 12.6209 15.4299 10.3104V5.3C15.4299 2.37761 13.0522 0 10.1299 0ZM11.4537 10.3119C11.4537 10.8896 11.0851 11.3955 10.5343 11.5716L3.97612 13.6791V5.3C3.97612 4.57015 4.57015 3.97612 5.3 3.97612H10.1284C10.8582 3.97612 11.4522 4.57015 11.4522 5.3V10.3119H11.4537Z" fill="white"/>
</svg>
