<svg width="10" height="4" viewBox="0 0 10 4" fill="none" xmlns="http://www.w3.org/2000/svg">
<path d="M4.79665 3.99865C4.64671 3.99891 4.5014 3.95243 4.38594 3.86729L0.535539 1.01162C0.404486 0.914678 0.322072 0.775372 0.306426 0.624349C0.290781 0.473327 0.343186 0.322958 0.452113 0.206323C0.56104 0.089688 0.717567 0.0163408 0.887258 0.00241676C1.05695 -0.0115073 1.22591 0.0351323 1.35696 0.132076L4.79665 2.69075L8.23635 0.223457C8.30199 0.176016 8.37752 0.140587 8.45859 0.119209C8.53967 0.0978302 8.62469 0.090923 8.70878 0.0988842C8.79286 0.106845 8.87435 0.129517 8.94856 0.165598C9.02277 0.201679 9.08823 0.250457 9.14119 0.309127C9.19996 0.367852 9.24447 0.436746 9.27193 0.511492C9.29939 0.586238 9.30922 0.665226 9.30078 0.743508C9.29235 0.821789 9.26584 0.897677 9.22292 0.966417C9.18 1.03516 9.12159 1.09527 9.05135 1.14298L5.20094 3.90156C5.08217 3.97324 4.93982 4.00743 4.79665 3.99865Z" fill="#8E98A9"/>
</svg>
